<?xml version="1.0" encoding="UTF-8"?>
<svg width="61px" height="67px" viewBox="0 0 61 67" version="1.1" xmlns="http://www.w3.org/2000/svg" xmlns:xlink="http://www.w3.org/1999/xlink">
    <!-- Generator: sketchtool 51 (57462) - http://www.bohemiancoding.com/sketch -->
    <title>10F335AF-33F8-462B-AA76-61A0CBCFE9DE</title>
    <desc>Created with sketchtool.</desc>
    <defs></defs>
    <g id="신규계정생성/로그인" stroke="none" stroke-width="1" fill="none" fill-rule="evenodd">
        <g id="1280.이메일인증_2" transform="translate(-610.000000, -270.000000)" fill="#FFFFFF">
            <g id="Group-3" transform="translate(440.000000, 270.000000)" fill-rule="nonzero">
                <g id="Group">
                    <g id="자산-1" transform="translate(170.000000, 0.000000)">
                        <path d="M57.5160666,19.1031326 L59.0124576,5.65666041 L49.6969502,9.50395133 C40.452688,1.9344168 27.6630658,0.492200592 16.9809185,5.81474217 L8.75266226,0 L7.25627127,13.4464722 C3.31745621,18.097586 0.856949553,23.8299211 0.192927001,29.9022116 C0.0605244282,30.879244 -0.00277333727,31.8644908 0.00351042102,32.8505316 C-0.150655953,43.0843156 4.7813817,52.7212608 13.1528094,58.5435784 C20.8260751,64.2573768 30.010885,66.4590938 48.8559406,66.9885724 L49.2726571,67 C47.5041117,65.2037417 46.8774958,62.566711 47.6474628,60.1605833 C47.9414939,59.3660687 48.3464865,58.6176755 48.8502581,57.9379157 C48.9904264,57.7684064 49.1381713,57.6027062 49.2953871,57.4446245 L49.4601795,57.2808289 C49.865531,56.9151458 50.2626744,56.5450187 50.6516098,56.1704474 C56.9610761,50.0757291 60.9388242,42.691597 60.9994375,33.40477 C61.0297669,28.4215723 59.8330655,23.5082887 57.5160666,19.1031326 Z M6.99677056,18.4746148 C7.16143065,17.5742306 8.0006743,16.9628622 8.90285517,17.086079 C9.80503605,17.2092957 10.4516933,18.0236033 10.3715388,18.935529 C10.2913844,19.8474547 9.51271196,20.5350978 8.60302316,20.4972994 C8.11154334,20.4718827 7.65443551,20.2359861 7.34735811,19.8492968 C7.04028072,19.4626074 6.91265407,18.9621731 6.99677056,18.4746148 Z M45.342263,29.306072 C45.2679436,29.6408672 45.0632652,29.9317395 44.7740133,30.1136222 C39.8946422,33.1724089 34.8732087,34.8655978 29.8479868,35.1455739 C28.3279809,35.2306209 26.8035671,35.1879366 25.2906239,35.0179658 C22.5771783,34.7020143 19.9210555,34.0057978 17.3995291,32.9495708 C13.4014837,31.2808064 9.75548996,28.8628244 6.65582071,25.8244642 C6.40785567,25.5754868 6.27112426,25.2358999 6.27698755,24.883592 C6.28856289,24.5679061 6.41532687,24.2675563 6.63309072,24.0398545 L6.70696319,23.9655751 C7.21071512,23.509452 7.98138334,23.5295361 8.46096072,24.0112855 C11.3376734,26.8167622 14.7145881,29.0517934 18.414802,30.599295 C21.9933308,32.1113354 25.8656759,32.7897986 29.7419135,32.5838877 C34.3239006,32.3229575 38.9286176,30.7592814 43.4253672,27.9385696 C43.8620189,27.6640261 44.4199633,27.6801618 44.8402,27.9794865 C45.2604368,28.2788112 45.460668,28.802706 45.3479455,29.3079766 L45.342263,29.306072 Z M46.0317394,23.0951731 C45.8670793,23.9955573 45.0278356,24.6069257 44.1256548,24.483709 C43.2234739,24.3604922 42.5768166,23.5461846 42.6569711,22.634259 C42.7371255,21.7223333 43.515798,21.0346902 44.4254868,21.0724885 C44.9169666,21.0979053 45.3740744,21.3338018 45.6811518,21.7204912 C45.9882292,22.1071805 46.1158559,22.6076148 46.0317394,23.0951731 Z" id="Shape"></path>
                    </g>
                </g>
            </g>
        </g>
    </g>
</svg>
