<svg xmlns="http://www.w3.org/2000/svg" xmlns:xlink="http://www.w3.org/1999/xlink" width="20" height="20" viewBox="0 0 20 20">
    <defs>
        <path id="a" d="M0 .666h18v1H0z"/>
        <path id="c" d="M0 .447h9v1H0z"/>
        <path id="e" d="M0 .228h18v1H0z"/>
        <path id="g" d="M0 .008h14.7V1H0z"/>
    </defs>
    <g fill="none" fill-rule="evenodd">
        <g transform="matrix(-1 0 0 1 19 1.334)">
            <mask id="b" fill="#fff">
                <use xlink:href="#a"/>
            </mask>
            <path fill="#FFF" d="M17.505 1.658H.494a.497.497 0 0 1 0-.992h17.01a.496.496 0 0 1 0 .992" mask="url(#b)"/>
        </g>
        <g transform="matrix(-1 0 0 1 19 6.334)">
            <mask id="d" fill="#fff">
                <use xlink:href="#c"/>
            </mask>
            <path fill="#FFF" d="M8.505 1.439H.495a.497.497 0 0 1 0-.992h8.01a.496.496 0 0 1 0 .992" mask="url(#d)"/>
        </g>
        <g transform="matrix(-1 0 0 1 19 11.334)">
            <mask id="f" fill="#fff">
                <use xlink:href="#e"/>
            </mask>
            <path fill="#FFF" d="M17.505 1.22H.494a.497.497 0 0 1 0-.992h17.01a.496.496 0 0 1 0 .992" mask="url(#f)"/>
        </g>
        <g transform="matrix(-1 0 0 1 19 16.334)">
            <mask id="h" fill="#fff">
                <use xlink:href="#g"/>
            </mask>
            <path fill="#FFF" d="M14.205 1H.495a.497.497 0 0 1 0-.992h13.71a.496.496 0 0 1 0 .992" mask="url(#h)"/>
        </g>
    </g>
</svg>
